<svg xmlns="http://www.w3.org/2000/svg" width="32" height="32">
    <path style="stroke:none;fill-rule:nonzero;fill:#3e7fd4;fill-opacity:1" d="M30.125 2.004c-3.047.195-9.098.902-12.832 3.473a.998.998 0 0 0-.406.824v22.742c0 .723.703 1.176 1.297.844 3.84-2.176 9.398-2.77 12.148-2.934.938-.055 1.668-.902 1.668-1.918V3.922c0-1.106-.852-1.985-1.875-1.918ZM14.707 5.477c-3.734-2.57-9.785-3.278-12.832-3.473C.852 1.937 0 2.816 0 3.922v21.117c0 1.012.73 1.86 1.668 1.914 2.75.164 8.309.758 12.152 2.934.59.336 1.29-.121 1.29-.84V6.289a.973.973 0 0 0-.403-.812Zm0 0"/>
</svg>
